<svg width="80" height="80" viewBox="0 0 80 80" fill="none" xmlns="http://www.w3.org/2000/svg">
<g id="icon/moon">
<path id="Vector" d="M40 10C36.0448 13.983 33.8294 19.3714 33.8392 24.9846C33.849 30.5979 36.0832 35.9784 40.0524 39.9476C44.0216 43.9168 49.4021 46.151 55.0154 46.1608C60.6286 46.1706 66.017 43.9553 70 40C70 45.9334 68.2405 51.7336 64.9441 56.6671C61.6477 61.6006 56.9623 65.4458 51.4805 67.7164C45.9987 69.987 39.9667 70.5811 34.1473 69.4236C28.3279 68.266 22.9824 65.4088 18.7868 61.2132C14.5912 57.0176 11.734 51.6721 10.5765 45.8527C9.4189 40.0333 10.013 34.0013 12.2836 28.5195C14.5543 23.0377 18.3994 18.3524 23.3329 15.0559C28.2664 11.7595 34.0666 10 40 10Z" stroke="black" stroke-width="2" stroke-linecap="round" stroke-linejoin="round"/>
</g>
</svg>
