<svg width="80" height="80" viewBox="0 0 80 80" fill="none" xmlns="http://www.w3.org/2000/svg">
<g id="icon/settings">
<path id="Vector" d="M40.7333 6.66666H39.2667C37.4986 6.66666 35.8029 7.36904 34.5526 8.61929C33.3024 9.86953 32.6 11.5652 32.6 13.3333V13.9333C32.5988 15.1024 32.2902 16.2506 31.7051 17.2628C31.1201 18.2749 30.2791 19.1155 29.2667 19.7L27.8333 20.5333C26.8199 21.1185 25.6703 21.4265 24.5 21.4265C23.3298 21.4265 22.1801 21.1185 21.1667 20.5333L20.6667 20.2667C19.1369 19.3842 17.3195 19.1448 15.6133 19.601C13.9072 20.0572 12.4518 21.1718 11.5667 22.7L10.8333 23.9667C9.95088 25.4964 9.71149 27.3139 10.1677 29.02C10.6239 30.7261 11.7385 32.1815 13.2667 33.0667L13.7667 33.4C14.7743 33.9817 15.6121 34.817 16.1968 35.8228C16.7816 36.8286 17.093 37.9699 17.1 39.1333V40.8333C17.1047 42.0081 16.7988 43.1632 16.2135 44.1817C15.6281 45.2002 14.784 46.046 13.7667 46.6333L13.2667 46.9333C11.7385 47.8185 10.6239 49.2739 10.1677 50.98C9.71149 52.6861 9.95088 54.5035 10.8333 56.0333L11.5667 57.3C12.4518 58.8282 13.9072 59.9428 15.6133 60.399C17.3195 60.8552 19.1369 60.6158 20.6667 59.7333L21.1667 59.4667C22.1801 58.8815 23.3298 58.5735 24.5 58.5735C25.6703 58.5735 26.8199 58.8815 27.8333 59.4667L29.2667 60.3C30.2791 60.8845 31.1201 61.7251 31.7051 62.7372C32.2902 63.7494 32.5988 64.8976 32.6 66.0667V66.6667C32.6 68.4348 33.3024 70.1305 34.5526 71.3807C35.8029 72.631 37.4986 73.3333 39.2667 73.3333H40.7333C42.5015 73.3333 44.1971 72.631 45.4474 71.3807C46.6976 70.1305 47.4 68.4348 47.4 66.6667V66.0667C47.4012 64.8976 47.7098 63.7494 48.2949 62.7372C48.8799 61.7251 49.7209 60.8845 50.7333 60.3L52.1667 59.4667C53.1801 58.8815 54.3298 58.5735 55.5 58.5735C56.6703 58.5735 57.8199 58.8815 58.8333 59.4667L59.3333 59.7333C60.8631 60.6158 62.6806 60.8552 64.3867 60.399C66.0928 59.9428 67.5482 58.8282 68.4333 57.3L69.1667 56C70.0491 54.4702 70.2885 52.6528 69.8323 50.9467C69.3761 49.2406 68.2616 47.7852 66.7333 46.9L66.2333 46.6333C65.216 46.046 64.3719 45.2002 63.7865 44.1817C63.2012 43.1632 62.8953 42.0081 62.9 40.8333V39.1667C62.8953 37.9919 63.2012 36.8368 63.7865 35.8183C64.3719 34.7998 65.216 33.954 66.2333 33.3667L66.7333 33.0667C68.2616 32.1815 69.3761 30.7261 69.8323 29.02C70.2885 27.3139 70.0491 25.4964 69.1667 23.9667L68.4333 22.7C67.5482 21.1718 66.0928 20.0572 64.3867 19.601C62.6806 19.1448 60.8631 19.3842 59.3333 20.2667L58.8333 20.5333C57.8199 21.1185 56.6703 21.4265 55.5 21.4265C54.3298 21.4265 53.1801 21.1185 52.1667 20.5333L50.7333 19.7C49.7209 19.1155 48.8799 18.2749 48.2949 17.2628C47.7098 16.2506 47.4012 15.1024 47.4 13.9333V13.3333C47.4 11.5652 46.6976 9.86953 45.4474 8.61929C44.1971 7.36904 42.5015 6.66666 40.7333 6.66666Z" stroke="black" stroke-width="2" stroke-linecap="round" stroke-linejoin="round"/>
<path id="Vector_2" d="M40 50C45.5228 50 50 45.5228 50 40C50 34.4772 45.5228 30 40 30C34.4772 30 30 34.4772 30 40C30 45.5228 34.4772 50 40 50Z" stroke="black" stroke-width="2" stroke-linecap="round" stroke-linejoin="round"/>
</g>
</svg>
