<svg width="80" height="80" viewBox="0 0 80 80" fill="none" xmlns="http://www.w3.org/2000/svg">
<g id="icon/sun-medium">
<path id="Vector" d="M40 53.3333C43.5362 53.3333 46.9276 51.9286 49.4281 49.4281C51.9286 46.9276 53.3334 43.5362 53.3334 40C53.3334 36.4638 51.9286 33.0724 49.4281 30.5719C46.9276 28.0714 43.5362 26.6667 40 26.6667C36.4638 26.6667 33.0724 28.0714 30.5719 30.5719C28.0714 33.0724 26.6667 36.4638 26.6667 40C26.6667 43.5362 28.0714 46.9276 30.5719 49.4281C33.0724 51.9286 36.4638 53.3333 40 53.3333Z" stroke="black" stroke-width="2" stroke-linecap="round" stroke-linejoin="round"/>
<path id="Vector_2" d="M40 10V13.3333" stroke="black" stroke-width="2" stroke-linecap="round" stroke-linejoin="round"/>
<path id="Vector_3" d="M40 66.6667V70" stroke="black" stroke-width="2" stroke-linecap="round" stroke-linejoin="round"/>
<path id="Vector_4" d="M10 40H13.3333" stroke="black" stroke-width="2" stroke-linecap="round" stroke-linejoin="round"/>
<path id="Vector_5" d="M66.6667 40H70" stroke="black" stroke-width="2" stroke-linecap="round" stroke-linejoin="round"/>
<path id="Vector_6" d="M61.2134 18.7867L58.8567 21.1433" stroke="black" stroke-width="2" stroke-linecap="round" stroke-linejoin="round"/>
<path id="Vector_7" d="M21.1433 58.8567L18.7867 61.2133" stroke="black" stroke-width="2" stroke-linecap="round" stroke-linejoin="round"/>
<path id="Vector_8" d="M18.7867 18.7867L21.1433 21.1433" stroke="black" stroke-width="2" stroke-linecap="round" stroke-linejoin="round"/>
<path id="Vector_9" d="M58.8567 58.8567L61.2134 61.2133" stroke="black" stroke-width="2" stroke-linecap="round" stroke-linejoin="round"/>
</g>
</svg>
